<svg width="22" height="22" viewBox="0 0 22 22" fill="none" xmlns="http://www.w3.org/2000/svg">
<path d="M2.75 10.0833C2.75 6.62658 2.75 4.89775 3.82433 3.82433C4.89867 2.75092 6.62658 2.75 10.0833 2.75H11.9167C15.3734 2.75 17.1022 2.75 18.1757 3.82433C19.2491 4.89867 19.25 6.62658 19.25 10.0833V11.9167C19.25 15.3734 19.25 17.1022 18.1757 18.1757C17.1013 19.2491 15.3734 19.25 11.9167 19.25H10.0833C6.62658 19.25 4.89775 19.25 3.82433 18.1757C2.75092 17.1013 2.75 15.3734 2.75 11.9167V10.0833Z" stroke="black" stroke-width="2"/>
<path d="M2.75 10.0833C2.75 6.62658 2.75 4.89775 3.82433 3.82433C4.89867 2.75092 6.62658 2.75 10.0833 2.75H11.9167C15.3734 2.75 17.1022 2.75 18.1757 3.82433C19.2491 4.89867 19.25 6.62658 19.25 10.0833V11.9167C19.25 15.3734 19.25 17.1022 18.1757 18.1757C17.1013 19.2491 15.3734 19.25 11.9167 19.25H10.0833C6.62658 19.25 4.89775 19.25 3.82433 18.1757C2.75092 17.1013 2.75 15.3734 2.75 11.9167V10.0833Z" stroke="black" stroke-opacity="0.2" stroke-width="2"/>
<path d="M15.125 8.25C15.8844 8.25 16.5 7.63439 16.5 6.875C16.5 6.11561 15.8844 5.5 15.125 5.5C14.3656 5.5 13.75 6.11561 13.75 6.875C13.75 7.63439 14.3656 8.25 15.125 8.25Z" fill="black"/>
<path d="M11 13.75C12.5188 13.75 13.75 12.5188 13.75 11C13.75 9.48122 12.5188 8.25 11 8.25C9.48122 8.25 8.25 9.48122 8.25 11C8.25 12.5188 9.48122 13.75 11 13.75Z" fill="black"/>
</svg>
