<svg width="20" height="20" viewBox="0 0 20 20" fill="none" xmlns="http://www.w3.org/2000/svg">
<path d="M20 4.54747V16.1383C20 16.8916 19.39 17.5016 18.6367 17.5016H15.4542V9.77497L10 13.8666L4.54583 9.77497V17.5025H1.36333C1.18423 17.5025 1.00688 17.4672 0.841416 17.3986C0.675954 17.3301 0.525625 17.2296 0.399017 17.1029C0.272408 16.9762 0.172003 16.8258 0.103539 16.6603C0.0350736 16.4948 -0.000109223 16.3174 2.5471e-07 16.1383V4.54747C2.5471e-07 2.86164 1.92417 1.89914 3.2725 2.91081L4.54583 3.86664L10 7.95664L15.4542 3.86497L16.7275 2.91081C18.075 1.89997 20 2.86164 20 4.54747Z" fill="black"/>
</svg>
